<svg xmlns="http://www.w3.org/2000/svg" viewBox="0 0 226.216 226.216"><path d="M8.701 43.503h208.814c5.22 0 8.701-3.48 8.701-8.701s-3.48-8.701-8.701-8.701H8.701C3.48 26.102 0 29.582 0 34.802s3.48 8.701 8.701 8.701zM217.515 104.407H8.701c-5.22 0-8.701 3.48-8.701 8.701s3.48 8.701 8.701 8.701h208.814c5.22 0 8.701-3.48 8.701-8.701s-3.481-8.701-8.701-8.701zM217.515 182.713H8.701c-5.22 0-8.701 3.48-8.701 8.701s3.48 8.701 8.701 8.701h208.814c5.22 0 8.701-3.48 8.701-8.701s-3.481-8.701-8.701-8.701z"/></svg>